<svg aria-roledescription="sequence" role="graphics-document document" viewBox="-50 -10 1670.5 2920" style="max-width: 1670.5px;" xmlns="http://www.w3.org/2000/svg" width="100%" id="export-svg"><style xmlns="http://www.w3.org/1999/xhtml">@import url("https://cdnjs.cloudflare.com/ajax/libs/font-awesome/6.2.0/css/all.min.css"); p {margin: 0;}</style><g><rect class="actor actor-bottom" ry="3" rx="3" name="FS" height="65" width="150" stroke="#666" fill="#eaeaea" y="2834" x="1420.5"/><text class="actor actor-box" alignment-baseline="central" dominant-baseline="central" style="text-anchor: middle; font-size: 16px; font-weight: 400;" y="2866.5" x="1495.5"><tspan dy="0" x="1495.5">FileSystem</tspan></text></g><g><rect class="actor actor-bottom" ry="3" rx="3" name="SP" height="65" width="150" stroke="#666" fill="#eaeaea" y="2834" x="1220.5"/><text class="actor actor-box" alignment-baseline="central" dominant-baseline="central" style="text-anchor: middle; font-size: 16px; font-weight: 400;" y="2866.5" x="1295.5"><tspan dy="0" x="1295.5">Subprocess</tspan></text></g><g><rect class="actor actor-bottom" ry="3" rx="3" name="YAML" height="65" width="150" stroke="#666" fill="#eaeaea" y="2834" x="1020.5"/><text class="actor actor-box" alignment-baseline="central" dominant-baseline="central" style="text-anchor: middle; font-size: 16px; font-weight: 400;" y="2866.5" x="1095.5"><tspan dy="0" x="1095.5">YAML</tspan></text></g><g><rect class="actor actor-bottom" ry="3" rx="3" name="VR" height="65" width="150" stroke="#666" fill="#eaeaea" y="2834" x="820.5"/><text class="actor actor-box" alignment-baseline="central" dominant-baseline="central" style="text-anchor: middle; font-size: 16px; font-weight: 400;" y="2866.5" x="895.5"><tspan dy="0" x="895.5">ValidationResult</tspan></text></g><g><rect class="actor actor-bottom" ry="3" rx="3" name="PC" height="65" width="150" stroke="#666" fill="#eaeaea" y="2834" x="620.5"/><text class="actor actor-box" alignment-baseline="central" dominant-baseline="central" style="text-anchor: middle; font-size: 16px; font-weight: 400;" y="2866.5" x="695.5"><tspan dy="0" x="695.5">PlaybookCheck</tspan></text></g><g><rect class="actor actor-bottom" ry="3" rx="3" name="AV" height="65" width="150" stroke="#666" fill="#eaeaea" y="2834" x="404"/><text class="actor actor-box" alignment-baseline="central" dominant-baseline="central" style="text-anchor: middle; font-size: 16px; font-weight: 400;" y="2866.5" x="479"><tspan dy="0" x="479">AnsibleValidator</tspan></text></g><g/><g><line data-id="FS" data-et="life-line" name="FS" stroke="#999" stroke-width="0.5px" class="actor-line 200" y2="2834" x2="1495.5" y1="65" x1="1495.5" id="actor200"/><g data-id="FS" data-et="participant" id="root-200"><rect class="actor actor-top" ry="3" rx="3" name="FS" height="65" width="150" stroke="#666" fill="#eaeaea" y="0" x="1420.5"/><text class="actor actor-box" alignment-baseline="central" dominant-baseline="central" style="text-anchor: middle; font-size: 16px; font-weight: 400;" y="32.5" x="1495.5"><tspan dy="0" x="1495.5">FileSystem</tspan></text></g></g><g><line data-id="SP" data-et="life-line" name="SP" stroke="#999" stroke-width="0.5px" class="actor-line 200" y2="2834" x2="1295.5" y1="65" x1="1295.5" id="actor199"/><g data-id="SP" data-et="participant" id="root-199"><rect class="actor actor-top" ry="3" rx="3" name="SP" height="65" width="150" stroke="#666" fill="#eaeaea" y="0" x="1220.5"/><text class="actor actor-box" alignment-baseline="central" dominant-baseline="central" style="text-anchor: middle; font-size: 16px; font-weight: 400;" y="32.5" x="1295.5"><tspan dy="0" x="1295.5">Subprocess</tspan></text></g></g><g><line data-id="YAML" data-et="life-line" name="YAML" stroke="#999" stroke-width="0.5px" class="actor-line 200" y2="2834" x2="1095.5" y1="65" x1="1095.5" id="actor198"/><g data-id="YAML" data-et="participant" id="root-198"><rect class="actor actor-top" ry="3" rx="3" name="YAML" height="65" width="150" stroke="#666" fill="#eaeaea" y="0" x="1020.5"/><text class="actor actor-box" alignment-baseline="central" dominant-baseline="central" style="text-anchor: middle; font-size: 16px; font-weight: 400;" y="32.5" x="1095.5"><tspan dy="0" x="1095.5">YAML</tspan></text></g></g><g><line data-id="VR" data-et="life-line" name="VR" stroke="#999" stroke-width="0.5px" class="actor-line 200" y2="2834" x2="895.5" y1="65" x1="895.5" id="actor197"/><g data-id="VR" data-et="participant" id="root-197"><rect class="actor actor-top" ry="3" rx="3" name="VR" height="65" width="150" stroke="#666" fill="#eaeaea" y="0" x="820.5"/><text class="actor actor-box" alignment-baseline="central" dominant-baseline="central" style="text-anchor: middle; font-size: 16px; font-weight: 400;" y="32.5" x="895.5"><tspan dy="0" x="895.5">ValidationResult</tspan></text></g></g><g><line data-id="PC" data-et="life-line" name="PC" stroke="#999" stroke-width="0.5px" class="actor-line 200" y2="2834" x2="695.5" y1="65" x1="695.5" id="actor196"/><g data-id="PC" data-et="participant" id="root-196"><rect class="actor actor-top" ry="3" rx="3" name="PC" height="65" width="150" stroke="#666" fill="#eaeaea" y="0" x="620.5"/><text class="actor actor-box" alignment-baseline="central" dominant-baseline="central" style="text-anchor: middle; font-size: 16px; font-weight: 400;" y="32.5" x="695.5"><tspan dy="0" x="695.5">PlaybookCheck</tspan></text></g></g><g><line data-id="AV" data-et="life-line" name="AV" stroke="#999" stroke-width="0.5px" class="actor-line 200" y2="2834" x2="479" y1="65" x1="479" id="actor195"/><g data-id="AV" data-et="participant" id="root-195"><rect class="actor actor-top" ry="3" rx="3" name="AV" height="65" width="150" stroke="#666" fill="#eaeaea" y="0" x="404"/><text class="actor actor-box" alignment-baseline="central" dominant-baseline="central" style="text-anchor: middle; font-size: 16px; font-weight: 400;" y="32.5" x="479"><tspan dy="0" x="479">AnsibleValidator</tspan></text></g></g><g><line data-id="Client" data-et="life-line" name="Client" stroke="#999" stroke-width="0.5px" class="actor-line 200" y2="2834" x2="75" y1="80" x1="75" id="actor194"/></g><style>#export-svg{font-family:"trebuchet ms",verdana,arial,sans-serif;font-size:14px;fill:#333;}#export-svg .error-icon{fill:#ffffff;}#export-svg .error-text{fill:#000000;stroke:#000000;}#export-svg .edge-thickness-normal{stroke-width:1px;}#export-svg .edge-thickness-thick{stroke-width:3.5px;}#export-svg .edge-pattern-solid{stroke-dasharray:0;}#export-svg .edge-thickness-invisible{stroke-width:0;fill:none;}#export-svg .edge-pattern-dashed{stroke-dasharray:3;}#export-svg .edge-pattern-dotted{stroke-dasharray:2;}#export-svg .marker{fill:#000000;stroke:#000000;}#export-svg .marker.cross{stroke:#000000;}#export-svg svg{font-family:"trebuchet ms",verdana,arial,sans-serif;font-size:14px;}#export-svg p{margin:0;}#export-svg .actor{stroke:hsl(0, 0%, 70%);fill:#ffffff;}#export-svg text.actor&gt;tspan{fill:#333;stroke:none;}#export-svg .actor-line{stroke:hsl(0, 0%, 70%);}#export-svg .messageLine0{stroke-width:1.5;stroke-dasharray:none;stroke:#333;}#export-svg .messageLine1{stroke-width:1.5;stroke-dasharray:2,2;stroke:#333;}#export-svg #arrowhead path{fill:#333;stroke:#333;}#export-svg .sequenceNumber{fill:#ffffff;}#export-svg #sequencenumber{fill:#333;}#export-svg #crosshead path{fill:#333;stroke:#333;}#export-svg .messageText{fill:#333;stroke:none;}#export-svg .labelBox{stroke:hsl(0, 0%, 70%);fill:#ffffff;}#export-svg .labelText,#export-svg .labelText&gt;tspan{fill:#333;stroke:none;}#export-svg .loopText,#export-svg .loopText&gt;tspan{fill:#333;stroke:none;}#export-svg .loopLine{stroke-width:2px;stroke-dasharray:2,2;stroke:hsl(0, 0%, 70%);fill:hsl(0, 0%, 70%);}#export-svg .note{stroke:hsl(52.6829268293, 60%, 73.9215686275%);fill:#fff5ad;}#export-svg .noteText,#export-svg .noteText&gt;tspan{fill:#333;stroke:none;}#export-svg .activation0{fill:hsl(-120, 0%, 80%);stroke:hsl(-120, 0%, 70%);}#export-svg .activation1{fill:hsl(-120, 0%, 80%);stroke:hsl(-120, 0%, 70%);}#export-svg .activation2{fill:hsl(-120, 0%, 80%);stroke:hsl(-120, 0%, 70%);}#export-svg .actorPopupMenu{position:absolute;}#export-svg .actorPopupMenuPanel{position:absolute;fill:#ffffff;box-shadow:0px 8px 16px 0px rgba(0,0,0,0.2);filter:drop-shadow(3px 5px 2px rgb(0 0 0 / 0.4));}#export-svg .actor-man line{stroke:hsl(0, 0%, 70%);fill:#ffffff;}#export-svg .actor-man circle,#export-svg line{stroke:hsl(0, 0%, 70%);fill:#ffffff;stroke-width:2px;}#export-svg .node .neo-node{stroke:#000000;}#export-svg [data-look="neo"].node rect,#export-svg [data-look="neo"].cluster rect,#export-svg [data-look="neo"].node polygon{stroke:url(#export-svg-gradient);filter:drop-shadow( 0px 1px 2px rgba(0, 0, 0, 0.25));}#export-svg [data-look="neo"].node rect,#export-svg [data-look="neo"].node polygon,#export-svg [data-look="neo"].node path{stroke:url(#export-svg-gradient);filter:drop-shadow( 0px 1px 2px rgba(0, 0, 0, 0.25));}#export-svg [data-look="neo"].node .neo-line path{stroke:hsl(0, 0%, 70%);filter:none;}#export-svg [data-look="neo"].node circle{stroke:url(#export-svg-gradient);filter:drop-shadow( 0px 1px 2px rgba(0, 0, 0, 0.25));}#export-svg [data-look="neo"].node circle .state-start{fill:#000000;}#export-svg [data-look="neo"].statediagram-cluster rect{fill:#ffffff;stroke:url(#export-svg-gradient);stroke-width:1px;}#export-svg [data-look="neo"].icon-shape .icon{fill:url(#export-svg-gradient);filter:drop-shadow( 0px 1px 2px rgba(0, 0, 0, 0.25));}#export-svg [data-look="neo"].icon-shape .icon-neo path{stroke:url(#export-svg-gradient);filter:drop-shadow( 0px 1px 2px rgba(0, 0, 0, 0.25));}#export-svg :root{--mermaid-font-family:"trebuchet ms",verdana,arial,sans-serif;}</style><g/><defs><symbol height="24" width="24" id="computer"><path d="M2 2v13h20v-13h-20zm18 11h-16v-9h16v9zm-10.228 6l.466-1h3.524l.467 1h-4.457zm14.228 3h-24l2-6h2.104l-1.33 4h18.45l-1.297-4h2.073l2 6zm-5-10h-14v-7h14v7z" transform="scale(.5)"/></symbol></defs><defs><symbol clip-rule="evenodd" fill-rule="evenodd" id="database"><path d="M12.258.001l.256.004.255.005.253.008.251.01.249.012.247.015.246.016.242.019.241.02.239.023.236.024.233.027.231.028.229.031.225.032.223.034.22.036.217.038.214.04.211.041.208.043.205.045.201.046.198.048.194.05.191.051.187.053.183.054.18.056.175.057.172.059.168.06.163.061.16.063.155.064.15.066.074.033.073.033.071.034.07.034.069.035.068.035.067.035.066.035.064.036.064.036.062.036.06.036.06.037.058.037.058.037.055.038.055.038.053.038.052.038.051.039.05.039.048.039.047.039.045.04.044.04.043.04.041.04.04.041.039.041.037.041.036.041.034.041.033.042.032.042.03.042.029.042.027.042.026.043.024.043.023.043.021.043.02.043.018.044.017.043.015.044.013.044.012.044.011.045.009.044.007.045.006.045.004.045.002.045.001.045v17l-.001.045-.002.045-.004.045-.006.045-.007.045-.009.044-.011.045-.012.044-.013.044-.015.044-.017.043-.018.044-.02.043-.021.043-.023.043-.024.043-.026.043-.027.042-.029.042-.03.042-.032.042-.033.042-.034.041-.036.041-.037.041-.039.041-.04.041-.041.04-.043.04-.044.04-.045.04-.047.039-.048.039-.05.039-.051.039-.052.038-.053.038-.055.038-.055.038-.058.037-.058.037-.06.037-.06.036-.062.036-.064.036-.064.036-.066.035-.067.035-.068.035-.069.035-.07.034-.071.034-.073.033-.074.033-.15.066-.155.064-.16.063-.163.061-.168.06-.172.059-.175.057-.18.056-.183.054-.187.053-.191.051-.194.05-.198.048-.201.046-.205.045-.208.043-.211.041-.214.04-.217.038-.22.036-.223.034-.225.032-.229.031-.231.028-.233.027-.236.024-.239.023-.241.02-.242.019-.246.016-.247.015-.249.012-.251.01-.253.008-.255.005-.256.004-.258.001-.258-.001-.256-.004-.255-.005-.253-.008-.251-.01-.249-.012-.247-.015-.245-.016-.243-.019-.241-.02-.238-.023-.236-.024-.234-.027-.231-.028-.228-.031-.226-.032-.223-.034-.22-.036-.217-.038-.214-.04-.211-.041-.208-.043-.204-.045-.201-.046-.198-.048-.195-.05-.19-.051-.187-.053-.184-.054-.179-.056-.176-.057-.172-.059-.167-.06-.164-.061-.159-.063-.155-.064-.151-.066-.074-.033-.072-.033-.072-.034-.07-.034-.069-.035-.068-.035-.067-.035-.066-.035-.064-.036-.063-.036-.062-.036-.061-.036-.06-.037-.058-.037-.057-.037-.056-.038-.055-.038-.053-.038-.052-.038-.051-.039-.049-.039-.049-.039-.046-.039-.046-.04-.044-.04-.043-.04-.041-.04-.04-.041-.039-.041-.037-.041-.036-.041-.034-.041-.033-.042-.032-.042-.03-.042-.029-.042-.027-.042-.026-.043-.024-.043-.023-.043-.021-.043-.02-.043-.018-.044-.017-.043-.015-.044-.013-.044-.012-.044-.011-.045-.009-.044-.007-.045-.006-.045-.004-.045-.002-.045-.001-.045v-17l.001-.045.002-.045.004-.045.006-.045.007-.045.009-.044.011-.045.012-.044.013-.044.015-.044.017-.043.018-.044.02-.043.021-.043.023-.043.024-.043.026-.043.027-.042.029-.042.03-.042.032-.042.033-.042.034-.041.036-.041.037-.041.039-.041.04-.041.041-.04.043-.04.044-.04.046-.04.046-.039.049-.039.049-.039.051-.039.052-.038.053-.038.055-.038.056-.038.057-.037.058-.037.06-.037.061-.036.062-.036.063-.036.064-.036.066-.035.067-.035.068-.035.069-.035.07-.034.072-.034.072-.033.074-.033.151-.066.155-.064.159-.063.164-.061.167-.06.172-.059.176-.057.179-.056.184-.054.187-.053.19-.051.195-.05.198-.048.201-.046.204-.045.208-.043.211-.041.214-.04.217-.038.22-.036.223-.034.226-.032.228-.031.231-.028.234-.027.236-.024.238-.023.241-.02.243-.019.245-.016.247-.015.249-.012.251-.01.253-.008.255-.005.256-.004.258-.001.258.001zm-9.258 20.499v.01l.001.021.003.021.004.022.005.021.006.022.007.022.009.023.01.022.011.023.012.023.013.023.015.023.016.024.017.023.018.024.019.024.021.024.022.025.023.024.024.025.052.049.056.05.061.051.066.051.07.051.075.051.079.052.084.052.088.052.092.052.097.052.102.051.105.052.11.052.114.051.119.051.123.051.127.05.131.05.135.05.139.048.144.049.147.047.152.047.155.047.16.045.163.045.167.043.171.043.176.041.178.041.183.039.187.039.19.037.194.035.197.035.202.033.204.031.209.03.212.029.216.027.219.025.222.024.226.021.23.02.233.018.236.016.24.015.243.012.246.01.249.008.253.005.256.004.259.001.26-.001.257-.004.254-.005.25-.008.247-.011.244-.012.241-.014.237-.016.233-.018.231-.021.226-.021.224-.024.22-.026.216-.027.212-.028.21-.031.205-.031.202-.034.198-.034.194-.036.191-.037.187-.039.183-.04.179-.04.175-.042.172-.043.168-.044.163-.045.16-.046.155-.046.152-.047.148-.048.143-.049.139-.049.136-.05.131-.05.126-.05.123-.051.118-.052.114-.051.11-.052.106-.052.101-.052.096-.052.092-.052.088-.053.083-.051.079-.052.074-.052.07-.051.065-.051.06-.051.056-.05.051-.05.023-.024.023-.025.021-.024.02-.024.019-.024.018-.024.017-.024.015-.023.014-.024.013-.023.012-.023.01-.023.01-.022.008-.022.006-.022.006-.022.004-.022.004-.021.001-.021.001-.021v-4.127l-.077.055-.08.053-.083.054-.085.053-.087.052-.09.052-.093.051-.095.05-.097.05-.1.049-.102.049-.105.048-.106.047-.109.047-.111.046-.114.045-.115.045-.118.044-.12.043-.122.042-.124.042-.126.041-.128.04-.13.04-.132.038-.134.038-.135.037-.138.037-.139.035-.142.035-.143.034-.144.033-.147.032-.148.031-.15.03-.151.03-.153.029-.154.027-.156.027-.158.026-.159.025-.161.024-.162.023-.163.022-.165.021-.166.02-.167.019-.169.018-.169.017-.171.016-.173.015-.173.014-.175.013-.175.012-.177.011-.178.01-.179.008-.179.008-.181.006-.182.005-.182.004-.184.003-.184.002h-.37l-.184-.002-.184-.003-.182-.004-.182-.005-.181-.006-.179-.008-.179-.008-.178-.01-.176-.011-.176-.012-.175-.013-.173-.014-.172-.015-.171-.016-.17-.017-.169-.018-.167-.019-.166-.02-.165-.021-.163-.022-.162-.023-.161-.024-.159-.025-.157-.026-.156-.027-.155-.027-.153-.029-.151-.03-.15-.03-.148-.031-.146-.032-.145-.033-.143-.034-.141-.035-.14-.035-.137-.037-.136-.037-.134-.038-.132-.038-.13-.04-.128-.04-.126-.041-.124-.042-.122-.042-.12-.044-.117-.043-.116-.045-.113-.045-.112-.046-.109-.047-.106-.047-.105-.048-.102-.049-.1-.049-.097-.05-.095-.05-.093-.052-.09-.051-.087-.052-.085-.053-.083-.054-.08-.054-.077-.054v4.127zm0-5.654v.011l.001.021.003.021.004.021.005.022.006.022.007.022.009.022.01.022.011.023.012.023.013.023.015.024.016.023.017.024.018.024.019.024.021.024.022.024.023.025.024.024.052.05.056.05.061.05.066.051.07.051.075.052.079.051.084.052.088.052.092.052.097.052.102.052.105.052.11.051.114.051.119.052.123.05.127.051.131.05.135.049.139.049.144.048.147.048.152.047.155.046.16.045.163.045.167.044.171.042.176.042.178.04.183.04.187.038.19.037.194.036.197.034.202.033.204.032.209.03.212.028.216.027.219.025.222.024.226.022.23.02.233.018.236.016.24.014.243.012.246.01.249.008.253.006.256.003.259.001.26-.001.257-.003.254-.006.25-.008.247-.01.244-.012.241-.015.237-.016.233-.018.231-.02.226-.022.224-.024.22-.025.216-.027.212-.029.21-.03.205-.032.202-.033.198-.035.194-.036.191-.037.187-.039.183-.039.179-.041.175-.042.172-.043.168-.044.163-.045.16-.045.155-.047.152-.047.148-.048.143-.048.139-.05.136-.049.131-.05.126-.051.123-.051.118-.051.114-.052.11-.052.106-.052.101-.052.096-.052.092-.052.088-.052.083-.052.079-.052.074-.051.07-.052.065-.051.06-.05.056-.051.051-.049.023-.025.023-.024.021-.025.02-.024.019-.024.018-.024.017-.024.015-.023.014-.023.013-.024.012-.022.01-.023.01-.023.008-.022.006-.022.006-.022.004-.021.004-.022.001-.021.001-.021v-4.139l-.077.054-.08.054-.083.054-.085.052-.087.053-.09.051-.093.051-.095.051-.097.05-.1.049-.102.049-.105.048-.106.047-.109.047-.111.046-.114.045-.115.044-.118.044-.12.044-.122.042-.124.042-.126.041-.128.04-.13.039-.132.039-.134.038-.135.037-.138.036-.139.036-.142.035-.143.033-.144.033-.147.033-.148.031-.15.03-.151.03-.153.028-.154.028-.156.027-.158.026-.159.025-.161.024-.162.023-.163.022-.165.021-.166.02-.167.019-.169.018-.169.017-.171.016-.173.015-.173.014-.175.013-.175.012-.177.011-.178.009-.179.009-.179.007-.181.007-.182.005-.182.004-.184.003-.184.002h-.37l-.184-.002-.184-.003-.182-.004-.182-.005-.181-.007-.179-.007-.179-.009-.178-.009-.176-.011-.176-.012-.175-.013-.173-.014-.172-.015-.171-.016-.17-.017-.169-.018-.167-.019-.166-.02-.165-.021-.163-.022-.162-.023-.161-.024-.159-.025-.157-.026-.156-.027-.155-.028-.153-.028-.151-.03-.15-.03-.148-.031-.146-.033-.145-.033-.143-.033-.141-.035-.14-.036-.137-.036-.136-.037-.134-.038-.132-.039-.13-.039-.128-.04-.126-.041-.124-.042-.122-.043-.12-.043-.117-.044-.116-.044-.113-.046-.112-.046-.109-.046-.106-.047-.105-.048-.102-.049-.1-.049-.097-.05-.095-.051-.093-.051-.09-.051-.087-.053-.085-.052-.083-.054-.08-.054-.077-.054v4.139zm0-5.666v.011l.001.02.003.022.004.021.005.022.006.021.007.022.009.023.01.022.011.023.012.023.013.023.015.023.016.024.017.024.018.023.019.024.021.025.022.024.023.024.024.025.052.05.056.05.061.05.066.051.07.051.075.052.079.051.084.052.088.052.092.052.097.052.102.052.105.051.11.052.114.051.119.051.123.051.127.05.131.05.135.05.139.049.144.048.147.048.152.047.155.046.16.045.163.045.167.043.171.043.176.042.178.04.183.04.187.038.19.037.194.036.197.034.202.033.204.032.209.03.212.028.216.027.219.025.222.024.226.021.23.02.233.018.236.017.24.014.243.012.246.01.249.008.253.006.256.003.259.001.26-.001.257-.003.254-.006.25-.008.247-.01.244-.013.241-.014.237-.016.233-.018.231-.02.226-.022.224-.024.22-.025.216-.027.212-.029.21-.03.205-.032.202-.033.198-.035.194-.036.191-.037.187-.039.183-.039.179-.041.175-.042.172-.043.168-.044.163-.045.16-.045.155-.047.152-.047.148-.048.143-.049.139-.049.136-.049.131-.051.126-.05.123-.051.118-.052.114-.051.11-.052.106-.052.101-.052.096-.052.092-.052.088-.052.083-.052.079-.052.074-.052.07-.051.065-.051.06-.051.056-.05.051-.049.023-.025.023-.025.021-.024.02-.024.019-.024.018-.024.017-.024.015-.023.014-.024.013-.023.012-.023.01-.022.01-.023.008-.022.006-.022.006-.022.004-.022.004-.021.001-.021.001-.021v-4.153l-.077.054-.08.054-.083.053-.085.053-.087.053-.09.051-.093.051-.095.051-.097.05-.1.049-.102.048-.105.048-.106.048-.109.046-.111.046-.114.046-.115.044-.118.044-.12.043-.122.043-.124.042-.126.041-.128.04-.13.039-.132.039-.134.038-.135.037-.138.036-.139.036-.142.034-.143.034-.144.033-.147.032-.148.032-.15.03-.151.03-.153.028-.154.028-.156.027-.158.026-.159.024-.161.024-.162.023-.163.023-.165.021-.166.02-.167.019-.169.018-.169.017-.171.016-.173.015-.173.014-.175.013-.175.012-.177.01-.178.01-.179.009-.179.007-.181.006-.182.006-.182.004-.184.003-.184.001-.185.001-.185-.001-.184-.001-.184-.003-.182-.004-.182-.006-.181-.006-.179-.007-.179-.009-.178-.01-.176-.01-.176-.012-.175-.013-.173-.014-.172-.015-.171-.016-.17-.017-.169-.018-.167-.019-.166-.02-.165-.021-.163-.023-.162-.023-.161-.024-.159-.024-.157-.026-.156-.027-.155-.028-.153-.028-.151-.03-.15-.03-.148-.032-.146-.032-.145-.033-.143-.034-.141-.034-.14-.036-.137-.036-.136-.037-.134-.038-.132-.039-.13-.039-.128-.041-.126-.041-.124-.041-.122-.043-.12-.043-.117-.044-.116-.044-.113-.046-.112-.046-.109-.046-.106-.048-.105-.048-.102-.048-.1-.05-.097-.049-.095-.051-.093-.051-.09-.052-.087-.052-.085-.053-.083-.053-.08-.054-.077-.054v4.153zm8.74-8.179l-.257.004-.254.005-.25.008-.247.011-.244.012-.241.014-.237.016-.233.018-.231.021-.226.022-.224.023-.22.026-.216.027-.212.028-.21.031-.205.032-.202.033-.198.034-.194.036-.191.038-.187.038-.183.04-.179.041-.175.042-.172.043-.168.043-.163.045-.16.046-.155.046-.152.048-.148.048-.143.048-.139.049-.136.05-.131.05-.126.051-.123.051-.118.051-.114.052-.11.052-.106.052-.101.052-.096.052-.092.052-.088.052-.083.052-.079.052-.074.051-.07.052-.065.051-.06.05-.056.05-.051.05-.023.025-.023.024-.021.024-.02.025-.019.024-.018.024-.017.023-.015.024-.014.023-.013.023-.012.023-.01.023-.01.022-.008.022-.006.023-.006.021-.004.022-.004.021-.001.021-.001.021.001.021.001.021.004.021.004.022.006.021.006.023.008.022.01.022.01.023.012.023.013.023.014.023.015.024.017.023.018.024.019.024.02.025.021.024.023.024.023.025.051.05.056.05.06.05.065.051.07.052.074.051.079.052.083.052.088.052.092.052.096.052.101.052.106.052.11.052.114.052.118.051.123.051.126.051.131.05.136.05.139.049.143.048.148.048.152.048.155.046.16.046.163.045.168.043.172.043.175.042.179.041.183.04.187.038.191.038.194.036.198.034.202.033.205.032.21.031.212.028.216.027.22.026.224.023.226.022.231.021.233.018.237.016.241.014.244.012.247.011.25.008.254.005.257.004.26.001.26-.001.257-.004.254-.005.25-.008.247-.011.244-.012.241-.014.237-.016.233-.018.231-.021.226-.022.224-.023.22-.026.216-.027.212-.028.21-.031.205-.032.202-.033.198-.034.194-.036.191-.038.187-.038.183-.04.179-.041.175-.042.172-.043.168-.043.163-.045.16-.046.155-.046.152-.048.148-.048.143-.048.139-.049.136-.05.131-.05.126-.051.123-.051.118-.051.114-.052.11-.052.106-.052.101-.052.096-.052.092-.052.088-.052.083-.052.079-.052.074-.051.07-.052.065-.051.06-.05.056-.05.051-.05.023-.025.023-.024.021-.024.02-.025.019-.024.018-.024.017-.023.015-.024.014-.023.013-.023.012-.023.01-.023.01-.022.008-.022.006-.023.006-.021.004-.022.004-.021.001-.021.001-.021-.001-.021-.001-.021-.004-.021-.004-.022-.006-.021-.006-.023-.008-.022-.01-.022-.01-.023-.012-.023-.013-.023-.014-.023-.015-.024-.017-.023-.018-.024-.019-.024-.02-.025-.021-.024-.023-.024-.023-.025-.051-.05-.056-.05-.06-.05-.065-.051-.07-.052-.074-.051-.079-.052-.083-.052-.088-.052-.092-.052-.096-.052-.101-.052-.106-.052-.11-.052-.114-.052-.118-.051-.123-.051-.126-.051-.131-.05-.136-.05-.139-.049-.143-.048-.148-.048-.152-.048-.155-.046-.16-.046-.163-.045-.168-.043-.172-.043-.175-.042-.179-.041-.183-.04-.187-.038-.191-.038-.194-.036-.198-.034-.202-.033-.205-.032-.21-.031-.212-.028-.216-.027-.22-.026-.224-.023-.226-.022-.231-.021-.233-.018-.237-.016-.241-.014-.244-.012-.247-.011-.25-.008-.254-.005-.257-.004-.26-.001-.26.001z" transform="scale(.5)"/></symbol></defs><defs><symbol height="24" width="24" id="clock"><path d="M12 2c5.514 0 10 4.486 10 10s-4.486 10-10 10-10-4.486-10-10 4.486-10 10-10zm0-2c-6.627 0-12 5.373-12 12s5.373 12 12 12 12-5.373 12-12-5.373-12-12-12zm5.848 12.459c.202.038.202.333.001.372-1.907.361-6.045 1.111-6.547 1.111-.719 0-1.301-.582-1.301-1.301 0-.512.77-5.447 1.125-7.445.034-.192.312-.181.343.014l.985 6.238 5.394 1.011z" transform="scale(.5)"/></symbol></defs><defs><marker orient="auto-start-reverse" markerHeight="12" markerWidth="12" markerUnits="userSpaceOnUse" refY="5" refX="7.9" id="arrowhead"><path d="M -1 0 L 10 5 L 0 10 z"/></marker></defs><defs><marker refY="4.5" refX="4" orient="auto" markerHeight="8" markerWidth="15" id="crosshead"><path style="stroke-dasharray: 0, 0;" d="M 1,2 L 6,7 M 6,2 L 1,7" stroke-width="1pt" stroke="#000000" fill="none"/></marker></defs><defs><marker orient="auto" markerHeight="28" markerWidth="20" refY="7" refX="15.5" id="filled-head"><path d="M 18,7 L9,13 L14,7 L9,1 Z"/></marker></defs><defs><marker orient="auto" markerHeight="40" markerWidth="60" refY="15" refX="15" id="sequencenumber"><circle r="6" cy="15" cx="15"/></marker></defs><g data-id="i5a9b592e9e" data-et="note"><rect class="note" height="37" width="454" stroke="#666" fill="#EDF2AE" y="75" x="50"/><text dy="1em" class="noteText" style="font-size: 16px; font-weight: 400;" alignment-baseline="middle" dominant-baseline="middle" text-anchor="middle" y="80" x="277"><tspan x="277">初期化フェーズ</tspan></text></g><g/><g><rect class="activation1" height="171" width="10" stroke="#666" fill="#EDF2AE" y="232" x="479"/></g><g data-id="i84c981614e" data-et="control-structure"><line class="loopLine" y2="240" x2="706.5" y1="240" x1="464"/><line class="loopLine" y2="329" x2="706.5" y1="240" x1="706.5"/><line class="loopLine" y2="329" x2="706.5" y1="329" x1="464"/><line class="loopLine" y2="329" x2="464" y1="240" x1="464"/><polygon class="labelBox" points="464,240 514,240 514,253 505.6,260 464,260"/><text class="labelText" style="font-size: 16px; font-weight: 400;" alignment-baseline="middle" dominant-baseline="middle" text-anchor="middle" y="253" x="489">loop</text><text class="loopText" style="font-size: 16px; font-weight: 400;" text-anchor="middle" y="258" x="610.25"><tspan x="610.25">[各チェック項目]</tspan></text></g><g data-id="i885b7420ac" data-et="note"><rect class="note" height="37" width="454" stroke="#666" fill="#EDF2AE" y="487" x="50"/><text dy="1em" class="noteText" style="font-size: 16px; font-weight: 400;" alignment-baseline="middle" dominant-baseline="middle" text-anchor="middle" y="492" x="277"><tspan x="277">検証フェーズ</tspan></text></g><g><rect class="activation1" height="1251" width="10" stroke="#666" fill="#EDF2AE" y="570" x="479"/></g><g><rect class="activation0" height="42" width="10" stroke="#666" fill="#EDF2AE" y="659" x="1090.5"/></g><g><rect class="activation0" height="42" width="10" stroke="#666" fill="#EDF2AE" y="747" x="1290.5"/></g><g><rect class="activation2" height="72" width="10" stroke="#666" fill="#EDF2AE" y="910" x="484"/></g><g><rect class="activation2" height="72" width="10" stroke="#666" fill="#EDF2AE" y="1103" x="484"/></g><g><rect class="activation2" height="72" width="10" stroke="#666" fill="#EDF2AE" y="1296" x="484"/></g><g><rect class="activation2" height="72" width="10" stroke="#666" fill="#EDF2AE" y="1489" x="484"/></g><g data-id="i98d1d46da6" data-et="control-structure"><line class="loopLine" y2="578" x2="1310.5" y1="578" x1="322.5"/><line class="loopLine" y2="1601" x2="1310.5" y1="578" x1="1310.5"/><line class="loopLine" y2="1601" x2="1310.5" y1="1601" x1="322.5"/><line class="loopLine" y2="1601" x2="322.5" y1="578" x1="322.5"/><line style="stroke-dasharray: 3, 3;" class="loopLine" y2="804" x2="1310.5" y1="804" x1="322.5"/><line style="stroke-dasharray: 3, 3;" class="loopLine" y2="997" x2="1310.5" y1="997" x1="322.5"/><line style="stroke-dasharray: 3, 3;" class="loopLine" y2="1190" x2="1310.5" y1="1190" x1="322.5"/><line style="stroke-dasharray: 3, 3;" class="loopLine" y2="1383" x2="1310.5" y1="1383" x1="322.5"/><polygon class="labelBox" points="322.5,578 372.5,578 372.5,591 364.1,598 322.5,598"/><text class="labelText" style="font-size: 16px; font-weight: 400;" alignment-baseline="middle" dominant-baseline="middle" text-anchor="middle" y="591" x="348">par</text><text class="loopText" style="font-size: 16px; font-weight: 400;" text-anchor="middle" y="596" x="841.5"><tspan x="841.5">[構文チェック]</tspan></text><text class="loopText" style="font-size: 16px; font-weight: 400;" text-anchor="middle" y="822" x="816.5">[べき等性チェック]</text><text class="loopText" style="font-size: 16px; font-weight: 400;" text-anchor="middle" y="1015" x="816.5">[セキュリティチェック]</text><text class="loopText" style="font-size: 16px; font-weight: 400;" text-anchor="middle" y="1208" x="816.5">[命名規則チェック]</text><text class="loopText" style="font-size: 16px; font-weight: 400;" text-anchor="middle" y="1401" x="816.5">[モジュールチェック]</text></g><g><rect class="activation0" height="42" width="10" stroke="#666" fill="#EDF2AE" y="1647" x="1290.5"/></g><g><rect class="activation0" height="42" width="10" stroke="#666" fill="#EDF2AE" y="1735" x="890.5"/></g><g data-id="i7659ae480d" data-et="note"><rect class="note" height="37" width="454" stroke="#666" fill="#EDF2AE" y="1831" x="50"/><text dy="1em" class="noteText" style="font-size: 16px; font-weight: 400;" alignment-baseline="middle" dominant-baseline="middle" text-anchor="middle" y="1836" x="277"><tspan x="277">レポート生成フェーズ</tspan></text></g><g><rect class="activation1" height="204" width="10" stroke="#666" fill="#EDF2AE" y="1959" x="479"/></g><g><rect class="activation0" height="42" width="10" stroke="#666" fill="#EDF2AE" y="2077" x="1490.5"/></g><g data-id="i2227a5c5c5" data-et="control-structure"><line class="loopLine" y2="1878" x2="1510.5" y1="1878" x1="64"/><line class="loopLine" y2="2173" x2="1510.5" y1="1878" x1="1510.5"/><line class="loopLine" y2="2173" x2="1510.5" y1="2173" x1="64"/><line class="loopLine" y2="2173" x2="64" y1="1878" x1="64"/><polygon class="labelBox" points="64,1878 114,1878 114,1891 105.6,1898 64,1898"/><text class="labelText" style="font-size: 16px; font-weight: 400;" alignment-baseline="middle" dominant-baseline="middle" text-anchor="middle" y="1891" x="89">opt</text><text class="loopText" style="font-size: 16px; font-weight: 400;" text-anchor="middle" y="1896" x="812.25"><tspan x="812.25">[レポート生成]</tspan></text></g><g data-id="iaa96163ca2" data-et="note"><rect class="note" height="37" width="163" stroke="#666" fill="#EDF2AE" y="2183" x="397.5"/><text dy="1em" class="noteText" style="font-size: 16px; font-weight: 400;" alignment-baseline="middle" dominant-baseline="middle" text-anchor="middle" y="2188" x="479"><tspan x="479">エラーハンドリング</tspan></text></g><g data-id="i86bbb8c5a1" data-et="control-structure"><line class="loopLine" y2="2230" x2="906.5" y1="2230" x1="64"/><line class="loopLine" y2="2437" x2="906.5" y1="2230" x1="906.5"/><line class="loopLine" y2="2437" x2="906.5" y1="2437" x1="64"/><line class="loopLine" y2="2437" x2="64" y1="2230" x1="64"/><polygon class="labelBox" points="64,2230 114,2230 114,2243 105.6,2250 64,2250"/><text class="labelText" style="font-size: 16px; font-weight: 400;" alignment-baseline="middle" dominant-baseline="middle" text-anchor="middle" y="2243" x="89">alt</text><text class="loopText" style="font-size: 16px; font-weight: 400;" text-anchor="middle" y="2248" x="510.25"><tspan x="510.25">[エラー発生時]</tspan></text></g><g data-id="i3a4faea9a2" data-et="note"><rect class="note" height="37" width="454" stroke="#666" fill="#EDF2AE" y="2447" x="50"/><text dy="1em" class="noteText" style="font-size: 16px; font-weight: 400;" alignment-baseline="middle" dominant-baseline="middle" text-anchor="middle" y="2452" x="277"><tspan x="277">詳細な検証プロセス</tspan></text></g><g data-id="i2e17c1dbd1" data-et="control-structure"><line class="loopLine" y2="2627" x2="906.5" y1="2627" x1="464"/><line class="loopLine" y2="2804" x2="906.5" y1="2627" x1="906.5"/><line class="loopLine" y2="2804" x2="906.5" y1="2804" x1="464"/><line class="loopLine" y2="2804" x2="464" y1="2627" x1="464"/><polygon class="labelBox" points="464,2627 514,2627 514,2640 505.6,2647 464,2647"/><text class="labelText" style="font-size: 16px; font-weight: 400;" alignment-baseline="middle" dominant-baseline="middle" text-anchor="middle" y="2640" x="489">alt</text><text class="loopText" style="font-size: 16px; font-weight: 400;" text-anchor="middle" y="2645" x="710.25"><tspan x="710.25">[severity based]</tspan></text></g><g data-id="i531fe82d78" data-et="control-structure"><line class="loopLine" y2="2494" x2="916.5" y1="2494" x1="454"/><line class="loopLine" y2="2814" x2="916.5" y1="2494" x1="916.5"/><line class="loopLine" y2="2814" x2="916.5" y1="2814" x1="454"/><line class="loopLine" y2="2814" x2="454" y1="2494" x1="454"/><polygon class="labelBox" points="454,2494 504,2494 504,2507 495.6,2514 454,2514"/><text class="labelText" style="font-size: 16px; font-weight: 400;" alignment-baseline="middle" dominant-baseline="middle" text-anchor="middle" y="2507" x="479">loop</text><text class="loopText" style="font-size: 16px; font-weight: 400;" text-anchor="middle" y="2512" x="710.25"><tspan x="710.25">[各チェック項目]</tspan></text></g><g data-id="Client" data-et="participant" name="Client" class="actor-man actor-top"><line y2="45" x2="75" y1="25" x1="75" id="actor-man-torso194"/><line y2="33" x2="93" y1="33" x1="57" id="actor-man-arms194"/><line y2="45" x2="75" y1="60" x1="57"/><line y2="60" x2="91" y1="45" x1="75"/><circle height="65" width="150" r="15" cy="10" cx="75"/><text class="actor actor-man" alignment-baseline="central" dominant-baseline="central" style="text-anchor: middle; font-size: 16px; font-weight: 400;" y="67.5" x="75"><tspan dy="0" x="75">Client</tspan></text></g><text dy="1em" class="messageText" style="font-size: 16px; font-weight: 400;" alignment-baseline="middle" dominant-baseline="middle" text-anchor="middle" y="127" x="274">インスタンス作成(ansible_lint_config)</text><line style="fill: none;" marker-end="url(#arrowhead)" stroke="none" stroke-width="2" data-to="AV" data-from="Client" data-id="i2548a091f0" data-et="message" class="messageLine0" y2="156" x2="471" y1="156" x1="76"/><text dy="1em" class="messageText" style="font-size: 16px; font-weight: 400;" alignment-baseline="middle" dominant-baseline="middle" text-anchor="middle" y="171" x="484">_initialize_checks()</text><path style="fill: none;" marker-end="url(#arrowhead)" stroke="none" stroke-width="2" data-to="AV" data-from="AV" data-id="i2ab31a1162" data-et="message" class="messageLine0" d="M 484,200 C 544,190 544,230 484,220"/><text dy="1em" class="messageText" style="font-size: 16px; font-weight: 400;" alignment-baseline="middle" dominant-baseline="middle" text-anchor="middle" y="290" x="590">チェック項目作成</text><line style="fill: none;" marker-end="url(#arrowhead)" stroke="none" stroke-width="2" data-to="PC" data-from="AV" data-id="i4727d614bf" data-et="message" class="messageLine0" y2="319" x2="691.5" y1="319" x1="489"/><text dy="1em" class="messageText" style="font-size: 16px; font-weight: 400;" alignment-baseline="middle" dominant-baseline="middle" text-anchor="middle" y="344" x="489">checks</text><path marker-end="url(#arrowhead)" style="stroke-dasharray: 3, 3; fill: none;" stroke="none" stroke-width="2" data-to="AV" data-from="AV" data-id="i01658b8f18" data-et="message" class="messageLine1" d="M 489,373 C 549,363 549,403 489,393"/><text dy="1em" class="messageText" style="font-size: 16px; font-weight: 400;" alignment-baseline="middle" dominant-baseline="middle" text-anchor="middle" y="418" x="484">_load_best_practices()</text><path style="fill: none;" marker-end="url(#arrowhead)" stroke="none" stroke-width="2" data-to="AV" data-from="AV" data-id="ib0a3458fa3" data-et="message" class="messageLine0" d="M 484,447 C 544,437 544,477 484,467"/><text dy="1em" class="messageText" style="font-size: 16px; font-weight: 400;" alignment-baseline="middle" dominant-baseline="middle" text-anchor="middle" y="539" x="274">validate_playbook(playbook_path)</text><line style="fill: none;" marker-end="url(#arrowhead)" stroke="none" stroke-width="2" data-to="AV" data-from="Client" data-id="i9d37a2c623" data-et="message" class="messageLine0" y2="568" x2="471" y1="568" x1="76"/><text dy="1em" class="messageText" style="font-size: 16px; font-weight: 400;" alignment-baseline="middle" dominant-baseline="middle" text-anchor="middle" y="628" x="788">safe_load(playbook_path)</text><line style="fill: none;" marker-end="url(#arrowhead)" stroke="none" stroke-width="2" data-to="YAML" data-from="AV" data-id="i803ae013ae" data-et="message" class="messageLine0" y2="657" x2="1087.5" y1="657" x1="489"/><text dy="1em" class="messageText" style="font-size: 16px; font-weight: 400;" alignment-baseline="middle" dominant-baseline="middle" text-anchor="middle" y="672" x="791">playbook_content</text><line marker-end="url(#arrowhead)" style="stroke-dasharray: 3, 3; fill: none;" stroke="none" stroke-width="2" data-to="AV" data-from="YAML" data-id="if47c79f133" data-et="message" class="messageLine1" y2="701" x2="492" y1="701" x1="1090.5"/><text dy="1em" class="messageText" style="font-size: 16px; font-weight: 400;" alignment-baseline="middle" dominant-baseline="middle" text-anchor="middle" y="716" x="888">ansible-playbook --syntax-check</text><line style="fill: none;" marker-end="url(#arrowhead)" stroke="none" stroke-width="2" data-to="SP" data-from="AV" data-id="i3e13e9cdfc" data-et="message" class="messageLine0" y2="745" x2="1287.5" y1="745" x1="489"/><text dy="1em" class="messageText" style="font-size: 16px; font-weight: 400;" alignment-baseline="middle" dominant-baseline="middle" text-anchor="middle" y="760" x="891">syntax_result</text><line marker-end="url(#arrowhead)" style="stroke-dasharray: 3, 3; fill: none;" stroke="none" stroke-width="2" data-to="AV" data-from="SP" data-id="iaa8323c283" data-et="message" class="messageLine1" y2="789" x2="492" y1="789" x1="1290.5"/><text dy="1em" class="messageText" style="font-size: 16px; font-weight: 400;" alignment-baseline="middle" dominant-baseline="middle" text-anchor="middle" y="849" x="489">_check_idempotency(playbook_path)</text><path style="fill: none;" marker-end="url(#arrowhead)" stroke="none" stroke-width="2" data-to="AV" data-from="AV" data-id="i46914b0083" data-et="message" class="messageLine0" d="M 489,878 C 549,868 549,908 489,898"/><text dy="1em" class="messageText" style="font-size: 16px; font-weight: 400;" alignment-baseline="middle" dominant-baseline="middle" text-anchor="middle" y="923" x="494">idempotency_warnings</text><path marker-end="url(#arrowhead)" style="stroke-dasharray: 3, 3; fill: none;" stroke="none" stroke-width="2" data-to="AV" data-from="AV" data-id="ie5cec7c3f3" data-et="message" class="messageLine1" d="M 494,952 C 554,942 554,982 494,972"/><text dy="1em" class="messageText" style="font-size: 16px; font-weight: 400;" alignment-baseline="middle" dominant-baseline="middle" text-anchor="middle" y="1042" x="489">_check_security(playbook_path)</text><path style="fill: none;" marker-end="url(#arrowhead)" stroke="none" stroke-width="2" data-to="AV" data-from="AV" data-id="i141357568c" data-et="message" class="messageLine0" d="M 489,1071 C 549,1061 549,1101 489,1091"/><text dy="1em" class="messageText" style="font-size: 16px; font-weight: 400;" alignment-baseline="middle" dominant-baseline="middle" text-anchor="middle" y="1116" x="494">security_errors</text><path marker-end="url(#arrowhead)" style="stroke-dasharray: 3, 3; fill: none;" stroke="none" stroke-width="2" data-to="AV" data-from="AV" data-id="i430e9971c2" data-et="message" class="messageLine1" d="M 494,1145 C 554,1135 554,1175 494,1165"/><text dy="1em" class="messageText" style="font-size: 16px; font-weight: 400;" alignment-baseline="middle" dominant-baseline="middle" text-anchor="middle" y="1235" x="489">_check_naming_convention(playbook_path)</text><path style="fill: none;" marker-end="url(#arrowhead)" stroke="none" stroke-width="2" data-to="AV" data-from="AV" data-id="i4d06518c4b" data-et="message" class="messageLine0" d="M 489,1264 C 549,1254 549,1294 489,1284"/><text dy="1em" class="messageText" style="font-size: 16px; font-weight: 400;" alignment-baseline="middle" dominant-baseline="middle" text-anchor="middle" y="1309" x="494">naming_warnings</text><path marker-end="url(#arrowhead)" style="stroke-dasharray: 3, 3; fill: none;" stroke="none" stroke-width="2" data-to="AV" data-from="AV" data-id="i9094a61db2" data-et="message" class="messageLine1" d="M 494,1338 C 554,1328 554,1368 494,1358"/><text dy="1em" class="messageText" style="font-size: 16px; font-weight: 400;" alignment-baseline="middle" dominant-baseline="middle" text-anchor="middle" y="1428" x="489">_check_modules(playbook_path)</text><path style="fill: none;" marker-end="url(#arrowhead)" stroke="none" stroke-width="2" data-to="AV" data-from="AV" data-id="i70696fdbfd" data-et="message" class="messageLine0" d="M 489,1457 C 549,1447 549,1487 489,1477"/><text dy="1em" class="messageText" style="font-size: 16px; font-weight: 400;" alignment-baseline="middle" dominant-baseline="middle" text-anchor="middle" y="1502" x="494">module_warnings</text><path marker-end="url(#arrowhead)" style="stroke-dasharray: 3, 3; fill: none;" stroke="none" stroke-width="2" data-to="AV" data-from="AV" data-id="i4ee841f22b" data-et="message" class="messageLine1" d="M 494,1531 C 554,1521 554,1561 494,1551"/><text dy="1em" class="messageText" style="font-size: 16px; font-weight: 400;" alignment-baseline="middle" dominant-baseline="middle" text-anchor="middle" y="1616" x="888">ansible-lint実行</text><line style="fill: none;" marker-end="url(#arrowhead)" stroke="none" stroke-width="2" data-to="SP" data-from="AV" data-id="if0d8505aef" data-et="message" class="messageLine0" y2="1645" x2="1287.5" y1="1645" x1="489"/><text dy="1em" class="messageText" style="font-size: 16px; font-weight: 400;" alignment-baseline="middle" dominant-baseline="middle" text-anchor="middle" y="1660" x="891">lint_results</text><line marker-end="url(#arrowhead)" style="stroke-dasharray: 3, 3; fill: none;" stroke="none" stroke-width="2" data-to="AV" data-from="SP" data-id="i5ef1ec5ed0" data-et="message" class="messageLine1" y2="1689" x2="492" y1="1689" x1="1290.5"/><text dy="1em" class="messageText" style="font-size: 16px; font-weight: 400;" alignment-baseline="middle" dominant-baseline="middle" text-anchor="middle" y="1704" x="688">ValidationResult作成</text><line style="fill: none;" marker-end="url(#arrowhead)" stroke="none" stroke-width="2" data-to="VR" data-from="AV" data-id="ibc32a57ff0" data-et="message" class="messageLine0" y2="1733" x2="887.5" y1="1733" x1="489"/><text dy="1em" class="messageText" style="font-size: 16px; font-weight: 400;" alignment-baseline="middle" dominant-baseline="middle" text-anchor="middle" y="1748" x="691">validation_result</text><line marker-end="url(#arrowhead)" style="stroke-dasharray: 3, 3; fill: none;" stroke="none" stroke-width="2" data-to="AV" data-from="VR" data-id="i670f13e657" data-et="message" class="messageLine1" y2="1777" x2="492" y1="1777" x1="890.5"/><text dy="1em" class="messageText" style="font-size: 16px; font-weight: 400;" alignment-baseline="middle" dominant-baseline="middle" text-anchor="middle" y="1792" x="277">validation_result</text><line marker-end="url(#arrowhead)" style="stroke-dasharray: 3, 3; fill: none;" stroke="none" stroke-width="2" data-to="Client" data-from="AV" data-id="ib096a10f10" data-et="message" class="messageLine1" y2="1821" x2="79" y1="1821" x1="474"/><text dy="1em" class="messageText" style="font-size: 16px; font-weight: 400;" alignment-baseline="middle" dominant-baseline="middle" text-anchor="middle" y="1928" x="274">generate_report(validation_result, output_path)</text><line style="fill: none;" marker-end="url(#arrowhead)" stroke="none" stroke-width="2" data-to="AV" data-from="Client" data-id="i27c52fc4f4" data-et="message" class="messageLine0" y2="1957" x2="471" y1="1957" x1="76"/><text dy="1em" class="messageText" style="font-size: 16px; font-weight: 400;" alignment-baseline="middle" dominant-baseline="middle" text-anchor="middle" y="1972" x="489">レポート構造の作成</text><path style="fill: none;" marker-end="url(#arrowhead)" stroke="none" stroke-width="2" data-to="AV" data-from="AV" data-id="iba50e706ad" data-et="message" class="messageLine0" d="M 489,2001 C 549,1991 549,2031 489,2021"/><text dy="1em" class="messageText" style="font-size: 16px; font-weight: 400;" alignment-baseline="middle" dominant-baseline="middle" text-anchor="middle" y="2046" x="988">JSONファイル保存</text><line style="fill: none;" marker-end="url(#arrowhead)" stroke="none" stroke-width="2" data-to="FS" data-from="AV" data-id="if0e06d281c" data-et="message" class="messageLine0" y2="2075" x2="1487.5" y1="2075" x1="489"/><text dy="1em" class="messageText" style="font-size: 16px; font-weight: 400;" alignment-baseline="middle" dominant-baseline="middle" text-anchor="middle" y="2090" x="991">完了</text><line marker-end="url(#arrowhead)" style="stroke-dasharray: 3, 3; fill: none;" stroke="none" stroke-width="2" data-to="AV" data-from="FS" data-id="i7f0c4d1f9f" data-et="message" class="messageLine1" y2="2119" x2="492" y1="2119" x1="1490.5"/><text dy="1em" class="messageText" style="font-size: 16px; font-weight: 400;" alignment-baseline="middle" dominant-baseline="middle" text-anchor="middle" y="2134" x="277">完了</text><line marker-end="url(#arrowhead)" style="stroke-dasharray: 3, 3; fill: none;" stroke="none" stroke-width="2" data-to="Client" data-from="AV" data-id="i3a8af295ef" data-et="message" class="messageLine1" y2="2163" x2="79" y1="2163" x1="474"/><text dy="1em" class="messageText" style="font-size: 16px; font-weight: 400;" alignment-baseline="middle" dominant-baseline="middle" text-anchor="middle" y="2280" x="484">エラーログ記録</text><path style="fill: none;" marker-end="url(#arrowhead)" stroke="none" stroke-width="2" data-to="AV" data-from="AV" data-id="i61f93ffd01" data-et="message" class="messageLine0" d="M 484,2309 C 544,2299 544,2339 484,2329"/><text dy="1em" class="messageText" style="font-size: 16px; font-weight: 400;" alignment-baseline="middle" dominant-baseline="middle" text-anchor="middle" y="2354" x="688">エラー情報を含むValidationResult作成</text><line style="fill: none;" marker-end="url(#arrowhead)" stroke="none" stroke-width="2" data-to="VR" data-from="AV" data-id="idb024601c6" data-et="message" class="messageLine0" y2="2383" x2="891.5" y1="2383" x1="484"/><text dy="1em" class="messageText" style="font-size: 16px; font-weight: 400;" alignment-baseline="middle" dominant-baseline="middle" text-anchor="middle" y="2398" x="277">エラー結果</text><line marker-end="url(#arrowhead)" style="stroke-dasharray: 3, 3; fill: none;" stroke="none" stroke-width="2" data-to="Client" data-from="AV" data-id="i05a304a384" data-et="message" class="messageLine1" y2="2427" x2="79" y1="2427" x1="474"/><text dy="1em" class="messageText" style="font-size: 16px; font-weight: 400;" alignment-baseline="middle" dominant-baseline="middle" text-anchor="middle" y="2544" x="588">check_function実行</text><line style="fill: none;" marker-end="url(#arrowhead)" stroke="none" stroke-width="2" data-to="PC" data-from="AV" data-id="ib9b7f674db" data-et="message" class="messageLine0" y2="2573" x2="691.5" y1="2573" x1="484"/><text dy="1em" class="messageText" style="font-size: 16px; font-weight: 400;" alignment-baseline="middle" dominant-baseline="middle" text-anchor="middle" y="2588" x="591">チェック結果</text><line marker-end="url(#arrowhead)" style="stroke-dasharray: 3, 3; fill: none;" stroke="none" stroke-width="2" data-to="AV" data-from="PC" data-id="i4ffbd36532" data-et="message" class="messageLine1" y2="2617" x2="487" y1="2617" x1="694.5"/><text dy="1em" class="messageText" style="font-size: 16px; font-weight: 400;" alignment-baseline="middle" dominant-baseline="middle" text-anchor="middle" y="2677" x="688">エラーとして追加</text><line style="fill: none;" marker-end="url(#arrowhead)" stroke="none" stroke-width="2" data-to="VR" data-from="AV" data-id="ib53913cecf" data-et="message" class="messageLine0" y2="2706" x2="891.5" y1="2706" x1="484"/><text dy="1em" class="messageText" style="font-size: 16px; font-weight: 400;" alignment-baseline="middle" dominant-baseline="middle" text-anchor="middle" y="2721" x="688">警告として追加</text><line style="fill: none;" marker-end="url(#arrowhead)" stroke="none" stroke-width="2" data-to="VR" data-from="AV" data-id="iaf2c14700a" data-et="message" class="messageLine0" y2="2750" x2="891.5" y1="2750" x1="484"/><text dy="1em" class="messageText" style="font-size: 16px; font-weight: 400;" alignment-baseline="middle" dominant-baseline="middle" text-anchor="middle" y="2765" x="688">提案として追加</text><line style="fill: none;" marker-end="url(#arrowhead)" stroke="none" stroke-width="2" data-to="VR" data-from="AV" data-id="ia1e0afec4a" data-et="message" class="messageLine0" y2="2794" x2="891.5" y1="2794" x1="484"/><g name="Client" class="actor-man actor-bottom"><line y2="2879" x2="75" y1="2859" x1="75" id="actor-man-torso200"/><line y2="2867" x2="93" y1="2867" x1="57" id="actor-man-arms200"/><line y2="2879" x2="75" y1="2894" x1="57"/><line y2="2894" x2="91" y1="2879" x1="75"/><circle height="65" width="150" r="15" cy="2844" cx="75"/><text class="actor actor-man" alignment-baseline="central" dominant-baseline="central" style="text-anchor: middle; font-size: 16px; font-weight: 400;" y="2901.5" x="75"><tspan dy="0" x="75">Client</tspan></text></g></svg>